<?xml version="1.0" encoding="UTF-8"?>
<svg id="_レイヤー_1" data-name="レイヤー 1" xmlns="http://www.w3.org/2000/svg" viewBox="0 0 24 23.41">
  <defs>
    <style>
      .cls-1 {
        fill: #fff;
        stroke-width: 0px;
      }
    </style>
  </defs>
  <path class="cls-1" d="M12,0C5.37,0,0,5.37,0,12c0,5.3,3.44,9.8,8.2,11.38.6.11.82-.26.82-.58,0-.28-.01-1.04-.02-2.04-3.34.72-4.04-1.61-4.04-1.61-.55-1.38-1.33-1.75-1.33-1.75-1.09-.74.08-.73.08-.73,1.2.08,1.84,1.24,1.84,1.24,1.07,1.83,2.81,1.31,3.49,1,.11-.78.42-1.31.76-1.6-2.66-.3-5.47-1.33-5.47-5.93,0-1.31.47-2.38,1.24-3.22-.14-.3-.54-1.52.11-3.18,0,0,1.01-.32,3.3,1.23.96-.27,1.98-.4,3-.41,1.02,0,2.04.14,3,.41,2.28-1.55,3.29-1.23,3.29-1.23.65,1.65.24,2.87.12,3.18.76.84,1.23,1.91,1.23,3.22,0,4.61-2.81,5.62-5.48,5.92.42.36.81,1.1.81,2.22,0,1.61-.02,2.9-.02,3.29,0,.32.21.69.82.57,4.8-1.57,8.24-6.07,8.24-11.37C24,5.37,18.63,0,12,0"/>
</svg>