<?xml version="1.0" encoding="UTF-8"?>
<svg id="_レイヤー_1" data-name="レイヤー 1" xmlns="http://www.w3.org/2000/svg" viewBox="0 0 24 24">
  <defs>
    <style>
      .cls-1 {
        fill: #fff;
        stroke-width: 0px;
      }
    </style>
  </defs>
  <path class="cls-1" d="M7.03.08c-1.28.06-2.15.26-2.91.56-.79.31-1.46.72-2.12,1.39-.67.67-1.08,1.34-1.38,2.13-.3.76-.5,1.64-.55,2.91C0,8.35,0,8.76,0,12.02c0,3.26.02,3.67.08,4.95.06,1.28.26,2.15.56,2.91.31.79.72,1.46,1.39,2.12.67.67,1.34,1.07,2.13,1.38.76.3,1.64.5,2.91.55,1.28.06,1.69.07,4.95.06,3.26,0,3.67-.02,4.95-.08,1.28-.06,2.15-.27,2.91-.56.79-.31,1.46-.72,2.12-1.39.67-.67,1.07-1.34,1.38-2.13.3-.76.5-1.64.55-2.91.06-1.28.07-1.69.06-4.95,0-3.26-.02-3.67-.08-4.95s-.26-2.15-.56-2.91c-.31-.79-.72-1.46-1.39-2.12-.67-.67-1.34-1.08-2.13-1.38-.76-.3-1.64-.5-2.91-.55C15.65,0,15.24,0,11.98,0c-3.26,0-3.67.02-4.95.08M7.17,21.78c-1.17-.05-1.81-.25-2.23-.41-.56-.22-.96-.48-1.38-.9-.42-.42-.68-.82-.9-1.38-.16-.42-.36-1.06-.42-2.23-.06-1.26-.07-1.64-.08-4.85,0-3.2,0-3.58.06-4.85.05-1.17.25-1.8.41-2.23.22-.56.48-.96.89-1.38.42-.42.82-.68,1.38-.9.42-.17,1.06-.36,2.23-.42,1.27-.06,1.64-.07,4.85-.08s3.58,0,4.85.06c1.17.05,1.81.24,2.23.41.56.22.96.48,1.38.89.42.42.68.82.9,1.38.17.42.36,1.06.42,2.23.06,1.27.07,1.64.08,4.85,0,3.2,0,3.58-.06,4.85-.05,1.17-.25,1.81-.41,2.23-.22.56-.48.96-.9,1.38-.42.42-.82.68-1.38.9-.42.16-1.06.36-2.23.42-1.27.06-1.64.07-4.85.08s-3.58,0-4.85-.06M16.95,5.59c0,.8.65,1.44,1.44,1.44.8,0,1.44-.65,1.44-1.44,0-.8-.65-1.44-1.44-1.44,0,0,0,0,0,0-.8,0-1.44.65-1.44,1.44M5.84,12.01c0,3.4,2.77,6.16,6.17,6.15,3.4,0,6.16-2.77,6.15-6.17,0-3.4-2.77-6.16-6.17-6.15s-6.16,2.77-6.15,6.17M8,12.01c0-2.21,1.78-4,3.99-4.01,2.21,0,4,1.78,4.01,3.99,0,2.21-1.78,4-3.99,4.01-2.21,0-4-1.78-4.01-3.99,0,0,0,0,0,0"/>
</svg>